<svg viewBox="0 0 192 192" xmlns="http://www.w3.org/2000/svg"><path d="m53.11 141.57a5.8 5.8 0 0 1 8.2-.3l6.69 6.26a5.81 5.81 0 0 1 -7.91 8.47l-6.69-6.24a5.82 5.82 0 0 1 -.29-8.19zm86.13 0a5.8 5.8 0 0 0 -8.2-.3l-6.69 6.25a5.81 5.81 0 0 0 7.91 8.51l6.69-6.24a5.82 5.82 0 0 0 .29-8.22z" fill-rule="evenodd"/><path d="m163.29 63.1-22.29 5.54v-19a15.12 15.12 0 0 0 -21-13.94q-17.2 7.3-23.65 7.3t-24-7.42a15.12 15.12 0 0 0 -21 13.93v19.2l-22.64-5.61a5.31 5.31 0 0 0 -6.59 5.52 40.62 40.62 0 0 0 30 36.21 44.86 44.86 0 0 0 88.11-.1 40.63 40.63 0 0 0 29.64-36.11 5.31 5.31 0 0 0 -6.58-5.52z" fill="none" stroke="#000" stroke-miterlimit="10" stroke-width="12"/><rect height="18.56" rx="5.81" width="11.61" x="70.31" y="63.64"/><rect height="18.56" rx="5.81" width="11.61" x="110.07" y="63.64"/><path d="m87.46 85.69a9 9 0 0 1 9.13-7.07 8.88 8.88 0 0 1 8.65 7.07v.31c0 .26-.08.36-.32.33l-8.32 1.51h-.49l-8.33-1.49c-.23 0-.32-.08-.32-.33z"/><path d="m96.42 89.66h-.49l-6-1.07v.55a6.44 6.44 0 0 0 12.88 0v-.61z" fill-rule="evenodd"/></svg>